<?xml version="1.0" standalone="no"?>
<!DOCTYPE svg PUBLIC "-//W3C//DTD SVG 20010904//EN"
 "http://www.w3.org/TR/2001/REC-SVG-20010904/DTD/svg10.dtd">
<svg version="1.0" xmlns="http://www.w3.org/2000/svg"
 width="700.000000pt" height="700.000000pt" viewBox="0 0 700.000000 700.000000"
 preserveAspectRatio="xMidYMid meet">
<metadata>
Created by potrace 1.11, written by Peter Selinger 2001-2013
</metadata>
<g transform="translate(0.000000,700.000000) scale(0.100000,-0.100000)"
fill="#000000" stroke="none">
<path d="M0 3500 l0 -3500 3500 0 3500 0 0 3500 0 3500 -3500 0 -3500 0 0
-3500z m6750 0 l0 -3250 -3250 0 -3250 0 0 3250 0 3250 3250 0 3250 0 0 -3250z"/>
<path d="M1938 5545 c-2 -2 -26 -5 -55 -9 -71 -8 -180 -32 -231 -50 -23 -8
-46 -16 -50 -17 -21 -5 -43 -14 -106 -46 -289 -144 -454 -380 -501 -718 -19
-133 -12 -358 15 -480 23 -105 75 -242 119 -310 95 -148 266 -345 386 -446 44
-37 259 -222 265 -229 3 -3 36 -32 75 -65 239 -205 375 -388 422 -565 23 -91
24 -267 0 -342 -19 -63 -57 -115 -96 -130 -91 -35 -210 -13 -284 52 -75 66
-132 212 -153 395 -4 33 -8 69 -10 80 -1 11 -3 52 -3 92 -1 63 -3 71 -18 69
-10 -2 -43 -7 -73 -11 -30 -4 -62 -9 -70 -10 -8 -1 -40 -6 -70 -10 -30 -4 -63
-9 -72 -11 -9 -1 -68 -10 -130 -19 -62 -9 -115 -18 -118 -20 -3 -2 -32 -6 -65
-10 -33 -4 -78 -10 -100 -14 l-40 -6 2 -45 c2 -68 17 -220 28 -280 3 -14 7
-39 10 -56 13 -81 60 -238 96 -319 51 -117 105 -199 182 -277 149 -150 347
-241 602 -275 74 -9 355 -10 411 -1 241 41 428 132 576 281 64 64 141 166 155
204 3 10 11 25 18 33 21 26 64 151 86 250 45 202 21 510 -55 715 -83 223 -284
483 -557 720 -366 318 -460 408 -559 531 -69 86 -94 136 -118 234 -18 73 -22
203 -8 261 10 45 45 117 72 149 40 47 80 63 154 63 74 0 120 -19 161 -66 25
-29 64 -123 73 -179 8 -50 23 -233 25 -305 1 -21 5 -31 14 -28 6 2 35 6 62 9
28 3 61 8 75 10 14 2 56 7 95 11 38 4 72 8 75 10 3 1 32 6 65 9 33 4 76 8 95
11 19 2 58 7 85 10 203 22 192 18 190 68 -7 116 -38 348 -50 367 -2 4 -7 21
-10 38 -11 64 -68 204 -116 283 -133 222 -327 345 -604 385 -73 10 -358 17
-367 9z"/>
<path d="M3643 5486 c-5 -7 -8 -3835 -4 -3953 l1 -23 439 0 439 0 0 841 c0
462 3 843 6 846 3 3 130 7 283 8 153 2 287 5 299 8 12 3 45 8 75 12 30 4 57 9
61 11 4 2 26 8 50 13 201 43 344 117 468 242 180 183 263 444 264 829 0 96
-10 260 -19 315 -45 259 -132 451 -265 586 -153 155 -318 230 -580 265 -84 11
-1511 11 -1517 0z m1307 -626 c148 -41 216 -131 237 -317 14 -122 8 -369 -12
-463 -3 -14 -7 -34 -9 -46 -12 -62 -78 -145 -141 -177 -56 -28 -147 -39 -309
-39 -89 0 -170 1 -181 1 -20 1 -20 7 -18 499 1 273 2 511 3 527 l0 31 193 -2
c117 -1 209 -6 237 -14z"/>
</g>
</svg>
