<svg xmlns="http://www.w3.org/2000/svg" viewBox="0 0 105.64 86.3"><defs><style>.cls-1{fill:none;stroke:#000;stroke-miterlimit:10;stroke-width:3px;}</style></defs><g id="Layer_2" data-name="Layer 2"><g id="logo"><path class="cls-1" d="M24.84,84.8a26.94,26.94,0,0,1-12.7-2.7,17.3,17.3,0,0,1-7.7-8.35Q1.84,68.1,1.54,59.1l15.3-2.3a37,37,0,0,0,.95,8.4,9.36,9.36,0,0,0,2.4,4.6,5.44,5.44,0,0,0,3.75,1.4c1.87,0,3.09-.63,3.65-1.9a9.65,9.65,0,0,0,.85-4A14.44,14.44,0,0,0,26,56.85a37.17,37.17,0,0,0-6.5-7l-7-6.1A39.2,39.2,0,0,1,4.79,35,22.37,22.37,0,0,1,1.64,22.7Q1.64,12.4,7.74,7T24.34,1.5q6.51,0,10.45,2.2a15.27,15.27,0,0,1,6,5.75,23.75,23.75,0,0,1,2.8,7.5,46.8,46.8,0,0,1,.85,7.55L29,26.4a58,58,0,0,0-.45-6.25,8.49,8.49,0,0,0-1.45-4.1,4,4,0,0,0-3.4-1.45,3.88,3.88,0,0,0-3.65,2.1,8.75,8.75,0,0,0-1.15,4.2,11.9,11.9,0,0,0,2.15,7.35,42.38,42.38,0,0,0,5.65,6l6.7,5.9a45.32,45.32,0,0,1,9,10.2Q46.05,56,46,64.4a20.77,20.77,0,0,1-2.6,10.35,19,19,0,0,1-7.35,7.35A22.36,22.36,0,0,1,24.84,84.8Z"/><path class="cls-1" d="M55.64,83.6V2.6h27.2q7.3,0,12,2.75a16.73,16.73,0,0,1,7,8,31.59,31.59,0,0,1,2.3,12.75q0,9.4-3.1,14.35a16.08,16.08,0,0,1-8.4,6.85,35,35,0,0,1-11.9,1.9h-7.2V83.6Zm17.9-46.9h6a8.64,8.64,0,0,0,5-1.2,5.73,5.73,0,0,0,2.25-3.6,27.79,27.79,0,0,0,.55-6.1,29.25,29.25,0,0,0-.45-5.45,6.14,6.14,0,0,0-2.15-3.75q-1.69-1.4-5.3-1.4h-5.9Z"/></g></g></svg>